<svg width="540" height="660" viewBox="0 0 540 660" fill="none" xmlns="http://www.w3.org/2000/svg">
<g opacity="0.6" clip-path="url(#clip0_1:32)">
<path d="M-147.368 242.903C-105.522 194.845 -22.884 257.018 96.8544 229.808C200.562 206.23 206.528 143.602 289.389 146.708C349.925 148.965 415.89 183.919 452.144 244.815C492.124 311.958 477.591 380.314 473.511 396.902C455.298 471.302 401.242 510.549 382.172 523.954C303.601 579.147 215.435 569.475 173.138 564.856C14.2542 547.455 -155.845 434.022 -163.419 310.697C-164.425 294.551 -166.257 264.605 -147.368 242.903Z" fill="url(#paint0_linear_1:32)"/>
</g>
<defs>
<linearGradient id="paint0_linear_1:32" x1="251.332" y1="47.6081" x2="91.6267" y2="528.827" gradientUnits="userSpaceOnUse">
<stop stop-color="#FFE8B9"/>
<stop offset="1" stop-color="#FFEDC7" stop-opacity="0.49"/>
</linearGradient>
<clipPath id="clip0_1:32">
<rect width="639.501" height="457.743" fill="white" transform="translate(-55.6447) rotate(21.4558)"/>
</clipPath>
</defs>
</svg>
